<?xml version="1.0" encoding="UTF-8"?>
<svg viewBox="0 0 640 480" xmlns="http://www.w3.org/2000/svg" xmlns:xlink="http://www.w3.org/1999/xlink">
 <defs>
  <filter id="c">
   <feGaussianBlur stdDeviation="3.959091"/>
  </filter>
  <filter id="b">
   <feGaussianBlur stdDeviation="10.093933"/>
  </filter>
  <linearGradient id="a">
   <stop stop-color="#bedcdc" offset="0"/>
   <stop stop-color="#8e9e9e" stop-opacity=".741" offset=".5"/>
   <stop stop-color="#404f5c" stop-opacity=".839" offset="1"/>
  </linearGradient>
  <radialGradient id="e" cx="380" cy="389.51" r="148.86" gradientTransform="matrix(-.077776 -.63309 .73206 -.076632 40.121 499.01)" gradientUnits="userSpaceOnUse" xlink:href="#a"/>
  <radialGradient id="d" cx="380" cy="389.51" r="148.86" gradientTransform="matrix(.063994 -.39498 .45834 .06364 94.574 351)" gradientUnits="userSpaceOnUse" xlink:href="#a"/>
 </defs>
 <g stroke-width="0">
  <path d="m322.41 81.591c-1.7008 12.38-12.653 21.948-25.917 21.948-12.59 1.5e-5 -23.117-8.6067-25.608-20.069-9.2253 1.921-18.122 4.6801-26.624 8.1772 4.6592 11.458 0.097015 24.809-11.259 31.15-10.544 5.8873-23.586 3.8814-31.745-4.142-5.722 5.1454-11.047 10.72-15.872 16.675 10.159 7.6306 13.191 21.547 6.5786 32.623-6.3064 10.564-19.314 15.08-30.84 11.401-2.7624 8.2124-4.7889 16.749-5.9825 25.535 13.24 1.2471 23.599 12.041 23.599 25.172 1.5e-5 12.369-9.1922 22.656-21.325 24.852 0.90279 3.9346 1.9493 7.8085 3.1789 11.614 2.3733-0.60422 4.8002-0.88489 7.1967-0.83264 8.8357 0.19278 17.359 4.7224 22.098 12.661 6.4503 10.805 3.7184 24.308-5.8501 32.047 5.3389 6.7964 11.288 13.123 17.771 18.895 4.9297-5.7753 12.17-9.018 19.625-9.1806 4.6282-0.10095 9.3213 0.99396 13.621 3.3947 11.921 6.6565 16.369 21.029 10.508 32.837 8.106 3.2457 16.567 5.8206 25.321 7.6434 2.491-11.462 13.018-20.069 25.608-20.069 13.264 0 24.216 9.5678 25.917 21.948 7.9264-1.0449 15.658-2.6816 23.136-4.8892-3.9119-11.19 0.74292-23.866 11.722-29.997 3.9086-2.1825 8.1667-3.2681 12.385-3.3733 8.4799-0.21161 16.802 3.5889 21.966 10.59 7.5406-5.5192 14.52-11.725 20.84-18.511-9.0641-7.8131-11.54-20.968-5.232-31.534 4.7389-7.9383 13.262-12.468 22.098-12.661 3.5247-0.076904 7.1046 0.54135 10.508 1.9002 3.054-7.3129 5.5019-14.929 7.285-22.781-11.372-2.7488-19.802-12.706-19.802-24.553 0-12.6 9.5413-23.052 22.01-24.98-1.7298-12.869-5.2253-25.198-10.243-36.765-12.205 5.6554-27.051 1.361-33.931-10.163-6.4315-10.773-3.7204-24.233 5.7839-31.983-5.7056-5.9436-11.922-11.435-18.588-16.376-8.0224 9.1364-21.892 11.734-33.003 5.5297-10.443-5.8313-15.161-17.589-12.23-28.353-7.965-2.4459-16.22-4.262-24.703-5.3803zm-20.177 91.379c0.90527 0 1.7993 0.020187 2.6933 0.064056 3.576 0.17564 7.0672 0.70172 10.42 1.5372 0.83816 0.20872 1.6731 0.43593 2.4946 0.68321 1.6428 0.49489 3.2432 1.0653 4.8125 1.708 0.78473 0.32117 1.5544 0.6664 2.318 1.0248 0.3818 0.1792 0.77145 0.36714 1.148 0.5551 0.052643 0.026093 0.10202 0.059143 0.15454 0.085403 0.51218 0.25606 1.0211 0.51825 1.5232 0.78996 0.55289 0.30061 1.0926 0.60004 1.6336 0.91806 1.4426 0.84857 2.8474 1.7578 4.1944 2.7328 0.50516 0.36546 1.0095 0.74925 1.5012 1.1316 0.30197 0.2354 0.60867 0.46289 0.90509 0.70456 0.40024 0.32542 0.78012 0.66687 1.17 1.0035 0.73077 0.63088 1.4495 1.2738 2.1413 1.9429 0.44522 0.43082 0.87369 0.87778 1.3025 1.3237 0.007141 0.007431 0.014954 0.013901 0.022064 0.021362 0.1983 0.20644 0.40134 0.40953 0.59607 0.61916 0.49966 0.53793 0.98129 1.0857 1.457 1.644 0.13354 0.15672 0.26578 0.31142 0.3974 0.46971 0.39654 0.47601 0.79108 0.9619 1.17 1.4518 0.47217 0.6116 0.92477 1.225 1.3687 1.8575 0.62021 0.88351 1.2248 1.7893 1.7882 2.7115 0.32101 0.5251 0.62543 1.0643 0.92718 1.6013 0.8082 1.4382 1.5434 2.9017 2.2076 4.4195 0.29114 0.66486 0.57669 1.3278 0.8389 2.0069 0.026764 0.069336 0.039734 0.14404 0.066223 0.2135 0.23282 0.61121 0.45343 1.2354 0.66226 1.8575 0.028717 0.085419 0.060059 0.17056 0.088318 0.2562 0.081268 0.24651 0.14331 0.49913 0.22076 0.74725 0.19022 0.60941 0.38498 1.2173 0.55188 1.8361 0.045959 0.1703 0.088318 0.34143 0.13245 0.51242 0.1131 0.43732 0.20782 0.88199 0.30908 1.3237 0.12497 0.54509 0.24658 1.0925 0.35321 1.644 0.005554 0.028778 0.016571 0.05658 0.022095 0.085388 0.00946 0.049423 0.012756 0.10001 0.022064 0.14946 0.12003 0.63728 0.23602 1.2762 0.33112 1.9215 0.006348 0.043015 0.0159 0.085052 0.022095 0.1281 0.020447 0.14125 0.024902 0.2854 0.044159 0.42702 0.080963 0.59601 0.16141 1.1911 0.22073 1.7934 0.0737 0.74854 0.13693 1.5057 0.17664 2.2631 0.044678 0.8577 0.066193 1.7364 0.066193 2.6047 0 1.751-0.085602 3.4613-0.26489 5.1668-7.32e-4 0.007019 7.32e-4 0.014359 0 0.021362-0.089233 0.84558-0.1994 1.6865-0.33112 2.5193-0.001099 0.006958 0.001099 0.014404 0 0.021362-0.13205 0.8327-0.29019 1.6578-0.46359 2.4766-0.001465 0.006836 0.001434 0.014511 0 0.021347-0.086884 0.40941-0.18646 0.81132-0.28699 1.217-0.097198 0.40656-0.20184 0.81421-0.30908 1.217-0.00177 0.006668 0.001801 0.014664 0 0.021332-0.21439 0.80386-0.45285 1.6033-0.70642 2.3912-0.002075 0.0065 0.002106 0.014862 0 0.021347-0.50992 1.5822-1.1046 3.1427-1.7661 4.6544-0.66415 1.5178-1.3994 2.9813-2.2076 4.4195-0.003113 0.005524 0.003113 0.015808 0 0.021362-0.80563 1.4325-1.6872 2.8183-2.627 4.1633-0.003448 0.004944 0.003448 0.016418 0 0.021362-0.46851 0.67003-0.95679 1.3175-1.457 1.9642-0.003601 0.004639 0.003632 0.016693 0 0.021347-0.50061 0.64677-1.0362 1.2778-1.5674 1.9002-0.003662 0.004303 0.003662 0.017059 0 0.021332-2.1368 2.5021-4.5206 4.8091-7.1084 6.8748-2.5919 2.069-5.3927 3.9026-8.3667 5.4656-1.4871 0.78162-3.0224 1.4927-4.5918 2.135-1.5693 0.64227-3.1697 1.2135-4.8125 1.708-0.82144 0.24725-1.6564 0.47449-2.4946 0.6832-3.3525 0.83478-6.8437 1.3617-10.42 1.5372-0.89404 0.043884-1.788 0.064087-2.6933 0.064087-0.90521 0-1.7992-0.020203-2.6932-0.064087-3.576-0.17563-7.0672-0.70172-10.42-1.5372-0.83816-0.20871-1.6731-0.43594-2.4946-0.6832-1.6428-0.4949-3.2432-1.0652-4.8125-1.708-1.5694-0.64233-3.1047-1.3534-4.5918-2.135-0.74353-0.39099-1.4642-0.814-2.1855-1.2383-0.72128-0.42422-1.4414-0.86844-2.1414-1.3237-0.698-0.45615-1.3795-0.92188-2.0531-1.4091-1.3471-0.97455-2.6426-2.0033-3.8853-3.0958-0.61749-0.54279-1.2202-1.1163-1.8102-1.6867-0.5976-0.57758-1.1756-1.1459-1.744-1.7507-0.003754-0.003967 0.003723-0.017395 0-0.021362-0.56479-0.60123-1.1209-1.2091-1.6557-1.8361-0.53488-0.62671-1.0636-1.2701-1.5674-1.9215-0.50378-0.6517-0.98541-1.3102-1.457-1.9856-0.94336-1.3501-1.8188-2.7464-2.627-4.1846-0.80817-1.4382-1.5434-2.9017-2.2076-4.4195-0.002686-0.006073 0.002625-0.015289 0-0.021362-0.32941-0.75305-0.65692-1.5134-0.94928-2.2845-0.00238-0.006287 0.00238-0.015045 0-0.021332-0.2944-0.77744-0.56116-1.5539-0.8168-2.3485-0.25015-0.77728-0.47217-1.5562-0.68436-2.3485-0.015198-0.056747-0.029175-0.11398-0.044128-0.17079-0.19037-0.72122-0.37183-1.4661-0.52985-2.1991-0.039612-0.18425-0.072815-0.37016-0.11035-0.55512-0.10571-0.51962-0.21997-1.0334-0.30908-1.5586-0.044586-0.26302-0.092072-0.52559-0.13245-0.78996-0.003174-0.020782 0.003143-0.043274 0-0.064056-0.10532-0.69464-0.18915-1.3887-0.26492-2.0923-0.013092-0.1214-0.031952-0.24133-0.044159-0.36296-0.072083-0.71994-0.11408-1.449-0.15451-2.1777-0.003204-0.057678-0.019073-0.11307-0.022064-0.17081-0.04538-0.86468-0.066254-1.7292-0.066254-2.6047 0-0.87549 0.020874-1.7401 0.066254-2.6047 0.043243-0.85608 0.10944-1.7129 0.19867-2.562 7.32e-4 -0.007034-7.32e-4 -0.014297 0-0.021347 0.088867-0.84567 0.1998-1.6864 0.33112-2.5193 0.001099-0.006973-0.001099-0.014389 0-0.021347 0.13171-0.83279 0.29056-1.6576 0.46362-2.4766 0.001434-0.006805-0.001465-0.014557 0-0.021362 0.1734-0.81889 0.38232-1.6299 0.59604-2.4339 0.00174-0.006653-0.00177-0.014694 0-0.021347 0.21402-0.80394 0.45319-1.6032 0.70642-2.3912 0.002045-0.006439-0.002075-0.014908 0-0.021347 0.25565-0.79442 0.5224-1.5714 0.8168-2.3485 0.22058-0.58229 0.46463-1.1573 0.70642-1.7294 0.027466-0.064911 0.060608-0.12735 0.088318-0.19214 0.11887-0.27792 0.22943-0.55725 0.35321-0.83267 0.19092-0.42426 0.39352-0.84152 0.59607-1.2596 0.1387-0.28676 0.27533-0.57021 0.41943-0.854 0.31735-0.62447 0.65015-1.2467 0.99341-1.8575 0.003052-0.005432-0.003052-0.01593 0-0.021362 0.40405-0.71906 0.81992-1.4161 1.2583-2.1137 0.44159-0.70261 0.89343-1.3913 1.3687-2.071 0.46826-0.67018 0.95703-1.3173 1.457-1.9642 0.003418-0.004471-0.003479-0.016891 0-0.021347 0.5003-0.64691 1.0364-1.2776 1.5674-1.9002 0.00351-0.004135-0.00354-0.017227 0-0.021347 0.53479-0.62668 1.0909-1.2352 1.6557-1.8361 1.6944-1.8029 3.5086-3.4868 5.4527-5.0387 2.5919-2.069 5.3927-3.9026 8.3668-5.4657 1.4871-0.78162 3.0223-1.4927 4.5918-2.135 1.5693-0.64226 3.1697-1.2136 4.8125-1.708 0.82144-0.24728 1.6564-0.47449 2.4946-0.68321 3.3526-0.83478 6.8438-1.3617 10.42-1.5372 0.89404-0.043869 1.788-0.064056 2.6932-0.064056z" filter="url(#b)" opacity=".885"/>
  <path d="m323.28 84.242c-1.7738 12.324-13.196 21.848-27.03 21.848-13.131 1.5e-5 -24.109-8.5674-26.707-19.978-9.6214 1.9123-18.9 4.6587-27.766 8.1398 4.8592 11.405 0.10114 24.696-11.742 31.008-10.996 5.8604-24.599 3.8637-33.108-4.123-5.9677 5.1219-11.521 10.671-16.554 16.598 10.595 7.5958 13.757 21.449 6.861 32.474-6.5772 10.516-20.143 15.012-32.164 11.349-2.881 8.1748-4.9945 16.672-6.2394 25.418 13.808 1.2414 24.612 11.986 24.612 25.057 1.5e-5 12.313-9.5868 22.552-22.241 24.738 0.94154 3.9167 2.033 7.7728 3.3154 11.562 2.4752-0.60147 5.0064-0.88089 7.5057-0.82886 9.2151 0.19186 18.104 4.7008 23.047 12.603 6.7272 10.756 3.878 24.197-6.1013 31.9 5.5681 6.7654 11.772 13.063 18.534 18.809 5.1413-5.7489 12.693-8.9768 20.468-9.1387 4.8269-0.10049 9.7215 0.98941 14.206 3.3792 12.433 6.6261 17.072 20.933 10.959 32.687 8.4539 3.2309 17.279 5.794 26.408 7.6085 2.598-11.41 13.576-19.978 26.707-19.978 13.834 0 25.256 9.524 27.03 21.848 8.2667-1.0402 16.33-2.6694 24.129-4.8668-4.0798-11.139 0.77487-23.758 12.226-29.86 4.0764-2.1725 8.5174-3.2531 12.916-3.3579 8.844-0.2106 17.524 3.5726 22.908 10.541 7.8643-5.4939 15.144-11.672 21.734-18.426-9.4532-7.7774-12.035-20.872-5.4566-31.39 4.9424-7.902 13.832-12.411 23.047-12.603 3.676-0.076538 7.4096 0.53891 10.959 1.8915 3.1852-7.2794 5.7382-14.861 7.5978-22.677-11.86-2.7363-20.652-12.648-20.652-24.441 0-12.542 9.9509-22.947 22.955-24.866-1.804-12.811-5.4497-25.083-10.683-36.597-12.729 5.6296-28.213 1.3548-35.387-10.116-6.7076-10.724-3.8802-24.122 6.0322-31.837-5.9506-5.9164-12.434-11.382-19.386-16.301-8.3668 9.0947-22.831 11.681-34.42 5.5045-10.892-5.8047-15.812-17.509-12.755-28.224-8.307-2.4347-16.916-4.2426-25.763-5.3557zm-21.044 90.962c0.94412 0 1.8765 0.020096 2.8089 0.063766 3.7296 0.17484 7.3707 0.69852 10.867 1.5302 0.87415 0.20778 1.745 0.43394 2.6017 0.68008 1.7134 0.49264 3.3824 1.0604 5.0191 1.7002 0.81839 0.3197 1.6211 0.66336 2.4175 1.0201 0.39819 0.17839 0.80454 0.36546 1.1972 0.55257 0.054871 0.025986 0.10638 0.058884 0.16116 0.085022 0.53415 0.25488 1.0649 0.51587 1.5886 0.78635 0.57663 0.29924 1.1395 0.59729 1.7037 0.91386 1.5045 0.8447 2.9697 1.7497 4.3745 2.7204 0.52682 0.36378 1.0529 0.74583 1.5656 1.1264 0.31497 0.23433 0.63483 0.46077 0.94397 0.70134 0.41742 0.32394 0.8136 0.66382 1.2203 0.99887 0.76215 0.62799 1.5118 1.268 2.2333 1.934 0.46432 0.42885 0.91119 0.87376 1.3584 1.3177 0.007446 0.007385 0.015564 0.013855 0.02301 0.02124 0.20679 0.20552 0.41858 0.40768 0.62164 0.61633 0.52115 0.53549 1.0234 1.0807 1.5196 1.6365 0.13925 0.15602 0.27716 0.31 0.41443 0.46756 0.41357 0.47385 0.82507 0.95752 1.2202 1.4452 0.49243 0.60881 0.96445 1.2194 1.4275 1.849 0.64679 0.87947 1.2774 1.7811 1.8649 2.6991 0.33478 0.5227 0.65228 1.0594 0.96698 1.594 0.8429 1.4317 1.6097 2.8884 2.3024 4.3993 0.30362 0.66184 0.60144 1.3218 0.87488 1.9978 0.027924 0.069016 0.041473 0.14337 0.069092 0.21252 0.24283 0.60841 0.47284 1.2298 0.6907 1.849 0.029907 0.085037 0.062622 0.1698 0.092102 0.25504 0.084747 0.24539 0.14944 0.49686 0.23022 0.74385 0.19842 0.60664 0.40149 1.2117 0.57559 1.8277 0.047913 0.16952 0.092102 0.33986 0.13815 0.51006 0.11792 0.43533 0.2167 0.87798 0.32233 1.3177 0.13031 0.5426 0.25714 1.0875 0.36838 1.6364 0.005798 0.028671 0.017273 0.056335 0.02301 0.085022 0.009888 0.049194 0.013306 0.099533 0.023041 0.14877 0.12515 0.63435 0.24616 1.2704 0.34534 1.9127 0.006622 0.042831 0.016541 0.084656 0.023041 0.12752 0.021301 0.14061 0.02597 0.28409 0.046021 0.42505 0.084442 0.59332 0.16836 1.1857 0.23026 1.7852 0.076813 0.74513 0.14273 1.4988 0.18417 2.2528 0.04657 0.85378 0.069092 1.7284 0.069092 2.5928 0 1.743-0.089325 3.4455-0.27631 5.1431-7.63e-4 0.006973 7.63e-4 0.014282 0 0.021255-0.093079 0.84172-0.20798 1.6788-0.34534 2.5078-0.00116 0.006927 0.001129 0.014343 0 0.021271-0.13773 0.82889-0.30264 1.6502-0.48349 2.4653-0.001526 0.006805 0.001495 0.01445 0 0.021255-0.090607 0.40755-0.19446 0.80763-0.29932 1.2114-0.10135 0.40469-0.21051 0.81049-0.32233 1.2114-0.001862 0.006668 0.001862 0.014618 0 0.021255-0.22357 0.80017-0.47229 1.596-0.73676 2.3803-0.002197 0.006485 0.002167 0.014786 0 0.021271-0.5318 1.575-1.152 3.1283-1.8419 4.6331-0.69269 1.5109-1.4595 2.9676-2.3024 4.3993-0.003235 0.005508 0.003235 0.015762 0 0.021255-0.84024 1.4259-1.7597 2.8054-2.7398 4.1443-0.003601 0.004929 0.003601 0.016342 0 0.021255-0.48865 0.66699-0.99786 1.3114-1.5196 1.9552-0.003754 0.004654 0.003754 0.016617 0 0.021255-0.52206 0.64386-1.0807 1.2719-1.6347 1.8915-0.003815 0.004272 0.003815 0.016968 0 0.02124-2.2285 2.4907-4.7147 4.787-7.4136 6.8434-2.7032 2.0595-5.6242 3.8848-8.726 5.4407-1.5509 0.77805-3.1521 1.4859-4.7889 2.1253-1.6367 0.63931-3.3058 1.208-5.0191 1.7002-0.85672 0.24616-1.7275 0.47232-2.6017 0.68008-3.4965 0.83096-7.1375 1.3555-10.867 1.5302-0.93237 0.043701-1.8648 0.063782-2.8089 0.063782-0.94409 0-1.8765-0.020081-2.8089-0.063782-3.7296-0.17484-7.3707-0.69852-10.867-1.5302-0.87415-0.20776-1.745-0.43393-2.6016-0.68008-1.7134-0.49264-3.3824-1.0604-5.0192-1.7002-1.6368-0.6394-3.238-1.3472-4.7889-2.1253-0.77542-0.38925-1.5271-0.8103-2.2793-1.2327-0.75226-0.4223-1.5033-0.8645-2.2333-1.3177-0.72797-0.45407-1.4388-0.91763-2.1412-1.4027-1.4049-0.97006-2.756-1.9941-4.0521-3.0816-0.64398-0.54031-1.2725-1.1112-1.8879-1.679-0.62323-0.57492-1.2261-1.1407-1.8189-1.7427-0.003876-0.003937 0.003876-0.017303 0-0.021271-0.58902-0.59848-1.169-1.2036-1.7268-1.8277-0.5578-0.62387-1.1092-1.2643-1.6347-1.9128-0.52542-0.64873-1.0277-1.3043-1.5196-1.9765-0.98383-1.3439-1.8969-2.7339-2.7398-4.1655-0.84283-1.4317-1.6097-2.8884-2.3024-4.3993-0.002747-0.006042 0.002777-0.015228 0-0.021255-0.34351-0.74962-0.68509-1.5065-0.98999-2.274-0.002502-0.006287 0.002502-0.014984 0-0.021271-0.30707-0.77385-0.58527-1.5468-0.85187-2.3378-0.2609-0.77371-0.49246-1.5491-0.71374-2.3378-0.015869-0.056488-0.030426-0.11346-0.046051-0.17001-0.19852-0.71793-0.38776-1.4594-0.55258-2.189-0.041321-0.18338-0.075928-0.36847-0.11511-0.55258-0.11023-0.51724-0.2294-1.0287-0.32233-1.5514-0.046509-0.26183-0.096008-0.52318-0.13812-0.78636-0.003296-0.020691 0.003265-0.04306 0-0.063751-0.10986-0.69144-0.19727-1.3824-0.27631-2.0828-0.013641-0.12082-0.033325-0.2402-0.046021-0.3613-0.075195-0.71664-0.11896-1.4424-0.16119-2.1678-0.003357-0.057419-0.019897-0.11256-0.02301-0.17003-0.047302-0.86072-0.069092-1.7213-0.069092-2.5928 0-0.87148 0.02179-1.7321 0.069092-2.5928 0.045105-0.85214 0.11414-1.7051 0.20721-2.5503 7.63e-4 -0.007004-7.63e-4 -0.014221 0-0.02124 0.092712-0.84181 0.20837-1.6787 0.34534-2.5078 0.00116-0.006927-0.001129-0.014328 0-0.021271 0.13733-0.82898 0.30304-1.6501 0.48352-2.4653 0.001495-0.006775-0.001526-0.014465 0-0.021255 0.18085-0.81517 0.39874-1.6224 0.62164-2.4228 0.001831-0.006607-0.001862-0.014648 0-0.021255 0.22318-0.80028 0.47266-1.5959 0.73676-2.3803 0.002136-0.006424-0.002197-0.014862 0-0.021271 0.2666-0.79079 0.5448-1.5642 0.85187-2.3378 0.23004-0.57962 0.48456-1.152 0.73676-1.7215 0.028625-0.064636 0.063171-0.12677 0.092102-0.19127 0.12396-0.27666 0.23926-0.55469 0.36835-0.82886 0.19913-0.42232 0.41043-0.83769 0.62164-1.2539 0.14471-0.28545 0.2872-0.5676 0.43744-0.85011 0.33099-0.6216 0.6781-1.241 1.0361-1.849 0.003204-0.005386-0.003174-0.015854 0-0.021255 0.42139-0.71579 0.85516-1.4096 1.3124-2.104 0.46054-0.69939 0.93176-1.3849 1.4275-2.0615 0.4884-0.66711 0.99817-1.3113 1.5196-1.9552 0.003601-0.00444-0.003571-0.016815 0-0.021255 0.52182-0.64395 1.081-1.2718 1.6347-1.8915 0.003693-0.004105-0.003662-0.017136 0-0.021255 0.5578-0.62381 1.1378-1.2296 1.7268-1.8277 1.7672-1.7946 3.6593-3.4709 5.6869-5.0156 2.7032-2.0595 5.6242-3.8848 8.7259-5.4407 1.5509-0.77803 3.1521-1.4859 4.7889-2.1253 1.6367-0.63933 3.3058-1.208 5.0192-1.7002 0.85669-0.24614 1.7275-0.4723 2.6016-0.68008 3.4965-0.83096 7.1375-1.3555 10.867-1.5302 0.9324-0.043671 1.8648-0.063766 2.8089-0.063766z" fill="#c0c0c0"/>
  <path d="m302.22 107.34c-69.602 1.5e-5 -126.08 52.153-126.08 116.4 0 64.248 56.475 116.38 126.08 116.38 69.602 6.1e-5 126.1-52.132 126.1-116.38s-56.498-116.4-126.1-116.4zm0.023 65.862c0.94409 0 1.8765 0.020096 2.8089 0.063766 3.7296 0.17484 7.3707 0.69852 10.867 1.5302 0.87418 0.20778 1.745 0.43394 2.6017 0.68008 1.7134 0.49264 3.3824 1.0604 5.0191 1.7002 2.4552 0.95911 4.8114 2.0917 7.0683 3.3579 1.5045 0.8447 2.9696 1.7497 4.3745 2.7204 2.1074 1.4551 4.1057 3.0461 5.9631 4.7606 3.7145 3.4308 6.8883 7.3501 9.4167 11.646 0.8429 1.4317 1.6097 2.8884 2.3024 4.3993 2.429 5.2945 3.9048 11.055 4.2364 17.087 0.046539 0.85378 0.069061 1.7284 0.069061 2.5928 0 1.743-0.089325 3.4455-0.27628 5.1431-7.63e-4 0.006973 7.63e-4 0.014282 0 0.021255-0.093109 0.84172-0.20801 1.6788-0.34537 2.5078-0.00116 0.006927 0.00116 0.014343 0 0.021271-0.13773 0.82889-0.30264 1.6502-0.48349 2.4653-0.001526 0.006805 0.001495 0.01445 0 0.021255-0.18121 0.81505-0.39841 1.6225-0.62164 2.4228-0.001831 0.006668 0.001862 0.014618 0 0.021255-0.22357 0.80017-0.47229 1.596-0.73676 2.3803-0.002167 0.006485 0.002167 0.014786 0 0.021271-1.0658 3.1563-2.4619 6.1749-4.1443 9.0324-0.003235 0.005508 0.003235 0.015762 0 0.021255-0.84021 1.4259-1.7596 2.8054-2.7398 4.1443-0.003601 0.004929 0.003601 0.016342 0 0.021255-0.48865 0.66699-0.99786 1.3114-1.5196 1.9552-0.003754 0.004654 0.003754 0.016617 0 0.021255-0.52206 0.64386-1.0807 1.2719-1.6347 1.8915-0.003784 0.004272 0.003815 0.016983 0 0.021255-1.1124 1.2433-2.2884 2.4312-3.5226 3.5704-0.62283 0.57532-1.2588 1.1318-1.911 1.679-0.64807 0.54373-1.3042 1.079-1.98 1.594-2.7032 2.0595-5.6242 3.8848-8.726 5.4407-1.5509 0.77805-3.1521 1.4859-4.7889 2.1253-1.6367 0.63931-3.3058 1.208-5.0191 1.7002-0.85672 0.24616-1.7275 0.47232-2.6017 0.68008-3.4965 0.83096-7.1375 1.3555-10.867 1.5302-0.93243 0.043701-1.8648 0.063782-2.8089 0.063782-0.94409 0-1.8765-0.020081-2.8089-0.063782-3.7296-0.17484-7.3707-0.69852-10.867-1.5302-0.87415-0.20776-1.7449-0.43393-2.6016-0.68008-1.7134-0.49264-3.3824-1.0604-5.0191-1.7002-2.4552-0.95911-4.8114-2.0917-7.0683-3.3579-1.5045-0.84467-2.9696-1.7497-4.3745-2.7203-2.8145-1.9434-5.3997-4.1271-7.759-6.5246-0.58899-0.59848-1.169-1.2036-1.7268-1.8277-2.2314-2.4954-4.2083-5.1915-5.894-8.0548-0.8429-1.4317-1.6097-2.8884-2.3024-4.3993-0.002777-0.006042 0.002747-0.015228 0-0.021255-0.34354-0.74962-0.68512-1.5065-0.99002-2.274-0.002502-0.006287 0.002472-0.014984 0-0.021271-0.30704-0.77385-0.58527-1.5468-0.8519-2.3378-1.3354-3.9605-2.1594-8.1219-2.3944-12.433-0.047302-0.86072-0.069061-1.7213-0.069061-2.5928 0-1.7502 0.087799-3.4599 0.27628-5.1644 0.092682-0.84181 0.2084-1.6787 0.34537-2.5078 0.001129-0.006927-0.00116-0.014328 0-0.021271 0.13733-0.82898 0.30301-1.6501 0.48349-2.4653 0.001495-0.006775-0.001495-0.014465 0-0.021255 0.18082-0.81517 0.39877-1.6224 0.62161-2.4228 0.001862-0.006607-0.001831-0.014648 0-0.021255 0.22321-0.80028 0.47266-1.5959 0.73676-2.3803 0.002197-0.006424-0.002136-0.014862 0-0.021271 0.26663-0.79079 0.54486-1.5642 0.8519-2.3378 0.92352-2.3268 2.0241-4.5634 3.2924-6.7158 0.42139-0.71579 0.8551-1.4096 1.3123-2.104 0.46057-0.69939 0.93176-1.3849 1.4275-2.0615 0.48834-0.66711 0.99814-1.3113 1.5195-1.9552 0.003601-0.00444-0.003601-0.016815 0-0.021255 0.52182-0.64395 1.0809-1.2718 1.6347-1.8915 0.003662-0.004105-0.003723-0.017136 0-0.021255 0.55777-0.62381 1.1378-1.2296 1.7268-1.8277 0.58905-0.59821 1.1767-1.1712 1.7958-1.7427 0.62289-0.5753 1.2588-1.1318 1.911-1.679 0.64804-0.54375 1.3042-1.079 1.98-1.594 2.7032-2.0595 5.6243-3.8848 8.726-5.4407 1.551-0.77803 3.1522-1.4859 4.7889-2.1253 1.6367-0.63933 3.3058-1.208 5.0191-1.7002 0.85672-0.24614 1.7275-0.4723 2.6016-0.68008 3.4965-0.83096 7.1376-1.3555 10.867-1.5302 0.9324-0.043671 1.8648-0.063766 2.8089-0.063766z" fill="#a9a9a9" opacity=".794"/>
  <path d="m302.22 122.49c-60.539 0-109.66 45.366-109.66 101.25 0 55.882 49.123 101.23 109.66 101.23 60.539 0 109.68-45.344 109.68-101.23 0-55.882-49.146-101.25-109.68-101.25zm0.023 50.709c30.211 0 54.727 22.652 54.727 50.539s-24.516 50.518-54.727 50.518-54.727-22.652-54.727-50.539 24.516-50.518 54.727-50.518z" fill="url(#e)" opacity=".794"/>
  <path d="m302.24 161.84c-37.06 0-67.137 27.719-67.137 61.875s30.077 61.897 67.137 61.897 67.137-27.719 67.137-61.875v-0.021713c0-34.156-30.077-61.875-67.137-61.875zm0 14.013c28.72 0 52.029 21.452 52.029 47.884-3.1e-5 26.432-23.309 47.862-52.029 47.862s-52.029-21.452-52.029-47.884 23.309-47.862 52.029-47.862z" fill="#696969" filter="url(#c)" opacity=".588"/>
  <path d="m302.24 163.19c-36.144 0-65.479 27.115-65.479 60.528 0 33.412 29.335 60.549 65.479 60.549s65.479-27.115 65.479-60.528v-0.021271c0-33.412-29.335-60.528-65.479-60.528zm0 13.708c28.011 0 50.744 20.985 50.744 46.841s-22.733 46.82-50.744 46.82-50.744-20.985-50.744-46.841 22.733-46.82 50.744-46.82z" fill="#c0c0c0"/>
  <path d="m339.48 140.71c-3.2092 7.2396-11.546 11.386-19.607 9.3923-7.6511-1.8924-12.536-8.6853-12.035-15.999-5.9438-0.2236-11.835 0.10956-17.616 0.94891 0.81781 7.637-4.301 15.035-12.316 17.166-7.442 1.9795-15.015-1.1952-18.563-7.2791-4.3815 2.2551-8.597 4.8296-12.576 7.7093 4.8327 6.1467 4.2293 15.028-1.7354 20.74-5.6889 5.4478-14.387 6.227-20.745 2.2669-3.1219 4.5567-5.8536 9.4201-8.123 14.56 7.8267 2.7451 12.225 10.837 9.9174 18.787-2.1738 7.4886-9.5675 12.334-17.327 11.84-0.14285 2.5178-0.18768 5.0204-0.10928 7.5095 1.5484-0.009125 3.0726 0.18573 4.5197 0.57758 5.3355 1.4448 9.719 5.4682 11.204 10.986 2.021 7.5111-2.0122 15.275-9.187 18.522 2.05 4.9172 4.5532 9.6417 7.4788 14.11 4.0107-2.7555 8.9806-3.6304 13.54-2.6083 2.8303 0.63455 5.4898 2.0028 7.6807 4.1025 6.0747 5.8218 6.2516 15.192 0.61502 21.459 4.3555 3.1834 9.045 6.0141 14.044 8.4334 3.5282-6.5652 11.438-10.194 19.089-8.3013 8.0606 1.9937 13.035 9.4324 11.892 17.183 5.0005 0.55875 9.9864 0.72992 14.918 0.5174-0.4108-7.3624 4.6458-14.338 12.395-16.399 2.7588-0.73386 5.5372-0.75107 8.1189-0.18082 5.1904 1.1465 9.58 4.6983 11.487 9.7128 5.5523-2.208 10.884-4.9163 15.917-8.0744-4.1351-6.0925-3.3277-14.429 2.3624-19.878 4.2748-4.0937 10.25-5.5549 15.654-4.3436 2.1555 0.48322 4.2223 1.3956 6.0518 2.7298 3.1411-3.9683 5.9671-8.2114 8.4305-12.697-6.4275-3.3734-9.8007-10.669-7.7187-17.841 2.2142-7.628 9.8494-12.522 17.765-11.815 1.2104-8.0514 1.2529-16.041 0.23633-23.798-8.411 1.5894-16.678-3.242-18.834-11.253-2.015-7.4891 1.9978-15.23 9.1354-18.494-2.4228-4.4559-5.2358-8.7147-8.4179-12.708-6.4808 4.3256-15.366 3.8137-21.028-1.6128-5.3216-5.1001-6.1221-12.928-2.4494-19.004-4.4105-2.678-9.1076-5.0182-14.066-6.9703zm-28.32 52.29c0.55008 0.13605 1.0898 0.28265 1.6254 0.44357 2.1423 0.64383 4.1714 1.4871 6.0619 2.4969 0.47269 0.25232 0.94016 0.51538 1.3959 0.78854 0.91138 0.54654 1.7837 1.1324 2.6244 1.7574 0.42041 0.31241 0.82745 0.63708 1.2285 0.96887 0.2005 0.16589 0.40427 0.33823 0.60004 0.50861 0.027405 0.023682 0.051605 0.051147 0.078918 0.074951 0.26624 0.232 0.52939 0.46722 0.7868 0.70715 0.28317 0.26514 0.55853 0.52753 0.83139 0.80139 0.72754 0.73053 1.4215 1.4921 2.0687 2.2849 0.24277 0.29718 0.48184 0.60535 0.71341 0.91071 0.14215 0.1879 0.28854 0.37174 0.42621 0.56259 0.18604 0.25717 0.35687 0.521 0.53467 0.78339 0.33322 0.49179 0.65701 0.98904 0.95984 1.4981 0.19486 0.32776 0.37668 0.66272 0.5589 0.99716 0.003021 0.005554 0.006622 0.010651 0.009644 0.016266 0.084198 0.15478 0.17194 0.30826 0.25342 0.46442 0.20911 0.40079 0.40552 0.80481 0.5965 1.2143 0.053619 0.11493 0.10678 0.22846 0.15894 0.34412 0.15732 0.34778 0.31171 0.70123 0.45587 1.0548 0.17944 0.44122 0.34668 0.88062 0.50534 1.3303 0.22159 0.62811 0.42987 1.2673 0.61011 1.9103 0.10278 0.36615 0.19305 0.73834 0.28204 1.1088 0.23837 0.99222 0.42798 1.9887 0.56488 3.0075 0.060059 0.44629 0.1171 0.89056 0.15707 1.3411 0.004089 0.045959-0.00116 0.09314 0.002747 0.13919 0.034058 0.40506 0.058411 0.81607 0.076019 1.2241 0.002411 0.05603 0.0065 0.1123 0.008636 0.1684 0.006073 0.16144-6.41e-4 0.32373 0.002808 0.4856 0.008545 0.39752 0.02005 0.7948 0.012726 1.1946-0.002014 0.11002-0.006317 0.22-0.009552 0.33017-0.008148 0.28174-0.028717 0.56519-0.04483 0.84784-0.019836 0.34878-0.042145 0.69846-0.074249 1.0483-0.001678 0.018311 1.22e-4 0.036774-0.001617 0.055054-0.002899 0.031311-0.009796 0.062439-0.012817 0.093811-0.039063 0.40387-0.080872 0.8081-0.13648 1.2131-0.003693 0.027008-0.00531 0.053894-0.009094 0.080872-0.01239 0.088593-0.035004 0.17654-0.048218 0.26517-0.055511 0.37302-0.11121 0.74536-0.181 1.1189-0.086792 0.46429-0.18143 0.93219-0.2904 1.3967-0.1236 0.52597-0.26489 1.0612-0.41751 1.5869-0.30771 1.0601-0.66034 2.0827-1.069 3.0882-0.001678 0.00415-0.002075 0.008789-0.003754 0.012939-0.20285 0.49854-0.41757 0.99106-0.64398 1.4755-0.001892 0.004028-0.001862 0.008911-0.003754 0.012939-0.22656 0.48425-0.46765 0.96002-0.71695 1.4297-0.002075 0.003937-0.001678 0.009033-0.003784 0.012939-0.12472 0.2348-0.25586 0.46316-0.38824 0.69366-0.13052 0.23151-0.26575 0.46258-0.40167 0.69031-0.002258 0.003784-0.001495 0.009155-0.003754 0.012909-0.27158 0.45444-0.55698 0.90259-0.84955 1.3415-0.00238 0.003601-0.001312 0.009308-0.003754 0.012939-0.58789 0.88123-1.2235 1.7366-1.8912 2.5524-0.67035 0.81909-1.3743 1.5945-2.1182 2.3438-0.002869 0.002899-9.16e-4 0.010071-0.003754 0.012939-0.74133 0.74616-1.5206 1.4526-2.3281 2.1257-0.00296 0.002502-7.93e-4 0.010468-0.003754 0.012939-0.40247 0.33524-0.81296 0.65381-1.2306 0.97015-0.003021 0.002289-7.32e-4 0.010681-0.003754 0.012939-0.41788 0.31634-0.85425 0.61783-1.2864 0.91482-0.002991 0.002045-7.63e-4 0.010895-0.003754 0.012909-1.7382 1.1937-3.5923 2.232-5.5279 3.0937-1.9387 0.86301-3.963 1.5521-6.045 2.0514-1.041 0.24966-2.099 0.4494-3.1656 0.60239-1.0665 0.15298-2.1395 0.25827-3.2247 0.3107-0.54266 0.026245-1.09 0.03833-1.636 0.038696-2.184 0.001465-4.3982-0.20422-6.6022-0.6355-0.55096-0.10782-1.0978-0.22998-1.6479-0.36603-0.55011-0.13611-1.0898-0.28268-1.6254-0.4436-2.1423-0.64386-4.1714-1.4871-6.0619-2.4968-0.47269-0.25235-0.94012-0.51538-1.3959-0.78857-0.91138-0.54654-1.7837-1.1324-2.6244-1.7574-0.84085-0.62476-1.6488-1.286-2.4152-1.9827-0.38312-0.34851-0.74674-0.71289-1.1105-1.0782-0.36374-0.36526-0.72333-0.74243-1.0687-1.1233-0.34399-0.38107-0.6763-0.76544-0.99997-1.1617-0.6474-0.79248-1.2538-1.61-1.8171-2.4582-0.27985-0.42142-0.54529-0.85925-0.80365-1.2932-0.26163-0.43951-0.513-0.87048-0.75214-1.322-0.001556-0.00296 0.00531-0.009979 0.003754-0.012909-0.23755-0.44891-0.46866-0.90051-0.68347-1.3605-0.2149-0.45981-0.42313-0.9288-0.61481-1.3989-0.19162-0.47024-0.36853-0.94134-0.53647-1.4211-0.336-0.95917-0.62265-1.9361-0.86102-2.9283-0.23837-0.99219-0.42798-1.9887-0.56488-3.0075-5.19e-4 -0.004059 0.004303-0.00885 0.003754-0.012909-0.06781-0.50543-0.13324-1.015-0.17538-1.5258-3.36e-4 -0.00415 0.00412-0.008759 0.003754-0.012939-0.042297-0.51489-0.067932-1.0251-0.083649-1.5446-0.015381-0.50821-0.013428-1.0132-0.003143-1.5247 7.32e-4 -0.036652 0.002319-0.073395 0.003204-0.11005 0.011047-0.46524 0.031708-0.94348 0.064484-1.411 0.008301-0.11749 0.020782-0.23505 0.030487-0.35266 0.0271-0.3305 0.047943-0.65869 0.08606-0.99005 0.019135-0.16596 0.036438-0.33203 0.05835-0.49817 0.00174-0.013062 0.009521-0.025726 0.01123-0.038757 0.058075-0.4364 0.12915-0.8692 0.20673-1.3066 0.013397-0.075439 0.02301-0.15088 0.036957-0.22635 0.082733-0.44675 0.18533-0.89441 0.28882-1.3417 0.008179-0.03537 0.00827-0.071289 0.016602-0.10669 0.12439-0.5303 0.26364-1.0569 0.41748-1.5869 0.15387-0.53003 0.31851-1.0504 0.49802-1.567 0.17673-0.51178 0.36755-1.0206 0.57098-1.5213 0.001678-0.00415 0.002075-0.008728 0.003754-0.012909 0.20264-0.49863 0.41779-0.99094 0.64398-1.4755 0.001892-0.004059 0.001862-0.008881 0.003754-0.012909 0.22638-0.48444 0.46786-0.9599 0.71695-1.4298 0.002075-0.003876 0.001678-0.009033 0.003754-0.012909 0.24927-0.4697 0.5188-0.92929 0.78995-1.3839 0.002258-0.003784 0.001495-0.009186 0.003754-0.012939 0.27133-0.45459 0.55716-0.90247 0.84952-1.3415 0.002411-0.003571 0.001373-0.009338 0.003754-0.012909 0.29498-0.44257 0.59363-0.8728 0.90909-1.2991 0.23642-0.3194 0.48575-0.6308 0.73325-0.94083 0.028076-0.035187 0.059204-0.068024 0.087402-0.10306 0.12109-0.15039 0.23737-0.30286 0.36099-0.45102 0.19055-0.22818 0.38702-0.45035 0.58359-0.67304 0.13467-0.15274 0.26755-0.30383 0.40497-0.45398 0.30261-0.33035 0.6142-0.65701 0.93014-0.97525 0.002808-0.002808 9.16e-4 -0.010071 0.003723-0.012909 0.37189-0.3746 0.74713-0.7341 1.1361-1.0906 0.39182-0.35898 0.78742-0.70801 1.1957-1.0481 0.40237-0.33536 0.81314-0.65369 1.2306-0.97018 0.002899-0.002167 8.85e-4 -0.010742 0.003754-0.012939 0.41776-0.31641 0.85437-0.61768 1.2864-0.9148 0.002869-0.001953 8.85e-4 -0.010925 0.003754-0.012939 0.43512-0.29901 0.88-0.58383 1.3288-0.86273 1.3465-0.83682 2.745-1.5836 4.1991-2.2309 1.9387-0.86301 3.963-1.5522 6.045-2.0514 1.041-0.2497 2.099-0.4494 3.1656-0.60242 1.0666-0.15295 2.1395-0.2583 3.2247-0.3107 0.54263-0.026276 1.09-0.0383 1.636-0.038696 2.184-0.001465 4.3982 0.20422 6.6022 0.63553 0.55102 0.10779 1.0978 0.22998 1.648 0.36603z" filter="url(#b)" opacity=".885"/>
  <path d="m339.89 141.24c-3.2437 7.1944-11.859 11.244-20.265 9.1642-7.9795-1.9736-13.146-8.8106-12.719-16.109-6.1829-0.28845-12.304-0.020355-18.304 0.75446 0.94855 7.6353-4.2786 14.967-12.585 17.008-7.7124 1.8952-15.628-1.3582-19.395-7.4725-4.5267 2.2039-8.8766 4.7286-12.977 7.5607 5.1039 6.1911 4.5908 15.053-1.5375 20.692-5.8449 5.3778-14.879 6.0606-21.54 2.0364-3.1874 4.5161-5.9651 9.3429-8.2586 14.451 8.1732 2.8271 12.85 10.956 10.553 18.869-2.1638 7.4544-9.7892 12.212-17.863 11.634-0.11615 2.5127-0.13052 5.0114-0.017029 7.4979 1.6099 0.007874 3.1971 0.21918 4.7068 0.62634 5.5662 1.5012 10.176 5.5671 11.79 11.094 2.1979 7.5229-1.8957 15.232-9.3138 18.396 2.1948 4.9328 4.8582 9.6783 7.9576 14.173 4.1347-2.7077 9.2909-3.5269 14.044-2.4562 2.951 0.6647 5.7339 2.0602 8.0388 4.181 6.3911 5.8803 6.6955 15.239 0.91559 21.436 4.5696 3.2267 9.482 6.1049 14.711 8.5756 3.584-6.5174 11.761-10.054 19.741-8.0804 8.4067 2.0793 13.674 9.5621 12.586 17.29 5.2064 0.61279 10.393 0.83841 15.518 0.68027-0.52185-7.3567 4.646-14.267 12.677-16.24 2.859-0.70254 5.7476-0.6893 8.4393-0.091522 5.4115 1.2018 10.021 4.7968 12.069 9.8252 5.7446-2.144 11.254-4.7901 16.446-7.8886-4.3779-6.1295-3.6456-14.445 2.2005-19.824 4.3922-4.0412 10.586-5.4348 16.22-4.1659 2.2473 0.50616 4.4081 1.4399 6.3275 2.7924 3.2148-3.9283 6.0987-8.1345 8.6023-12.587-6.7264-3.4392-10.328-10.761-8.2551-17.901 2.2041-7.5931 10.08-12.397 18.319-11.604 1.155-8.0269 1.0963-16.005-0.060547-23.762-8.7248 1.4949-17.383-3.4204-19.727-11.444-2.1915-7.5008 1.8813-15.187 9.2606-18.368-2.5764-4.4763-5.556-8.76-8.916-12.783-6.6828 4.2485-15.927 3.64-21.884-1.8412-5.5988-5.1514-6.5318-12.977-2.7913-19.004-4.6203-2.7226-9.5343-5.1111-14.715-7.1148zm-28.774 51.907c0.5737 0.14188 1.1368 0.29419 1.6957 0.46078 2.2358 0.66641 4.3564 1.5307 6.335 2.5598 0.49475 0.2572 0.98416 0.52502 1.4615 0.8028 0.95462 0.55579 1.8691 1.1504 2.7513 1.7838 0.44119 0.31659 0.86856 0.64526 1.2898 0.98096 0.21063 0.16788 0.42468 0.34222 0.63043 0.51453 0.028809 0.023926 0.054321 0.051636 0.083038 0.075684 0.27978 0.23459 0.55646 0.47235 0.82718 0.71484 0.29785 0.26782 0.58756 0.5329 0.87476 0.80936 0.76584 0.73749 1.4972 1.5056 2.1803 2.3045 0.25623 0.29938 0.50876 0.60974 0.75342 0.91724 0.15024 0.18918 0.30481 0.37436 0.45041 0.5665 0.19675 0.25885 0.37778 0.52414 0.56601 0.78812 0.35278 0.49475 0.69583 0.99493 1.0173 1.5065 0.20682 0.32944 0.40018 0.66602 0.59393 1.002 0.003235 0.005585 0.007019 0.010742 0.010254 0.016327 0.089539 0.15549 0.18271 0.30972 0.26944 0.46658 0.2226 0.4025 0.43201 0.8081 0.63586 1.2191 0.05719 0.11539 0.11395 0.22934 0.16965 0.34534 0.16806 0.34906 0.33313 0.70374 0.48761 1.0584 0.19223 0.4426 0.3718 0.88321 0.54248 1.334 0.23852 0.62967 0.46332 1.2703 0.65897 1.9144 0.1116 0.36679 0.21024 0.73944 0.30753 1.1104 0.26065 0.99344 0.47058 1.9906 0.62601 3.0095 0.068207 0.44632 0.13324 0.89062 0.1806 1.341 0.004852 0.045959 0 0.093048 0.004608 0.13904 0.040649 0.40485 0.071228 0.81561 0.094849 1.2232 0.003235 0.056 0.008179 0.11221 0.011108 0.16824 0.008392 0.16132 0.00351 0.32327 0.009216 0.48492 0.013947 0.3971 0.031036 0.79398 0.028564 1.1931-6.71e-4 0.10983-0.003754 0.21957-0.005676 0.32956-0.004852 0.28128-0.022583 0.56409-0.035706 0.84619-0.016144 0.34808-0.034851 0.69702-0.063721 1.0461-0.001526 0.018219 6.41e-4 0.036682-9.46e-4 0.054901-0.002655 0.03125-0.009399 0.062256-0.012146 0.093536-0.035431 0.40286-0.073639 0.80612-0.12625 1.2099-0.00351 0.026947-0.004852 0.053741-0.008453 0.080719-0.011749 0.088257-0.034149 0.17584-0.046692 0.26422-0.052979 0.37189-0.10608 0.7431-0.17383 1.1154-0.084229 0.46265-0.17664 0.92883-0.284 1.3915-0.1217 0.52386-0.26175 1.0568-0.41367 1.5801-0.3063 1.0552-0.65976 2.0725-1.0718 3.0722-0.001678 0.00412-0.002014 0.008759-0.003723 0.012878-0.2045 0.49558-0.42142 0.98511-0.6506 1.4664-0.001892 0.003998-0.001801 0.00885-0.003754 0.012848-0.22931 0.48111-0.47385 0.95355-0.72702 1.4199-0.002136 0.003906-0.001617 0.008972-0.003754 0.012848-0.12665 0.23315-0.26007 0.45972-0.39478 0.68845-0.13272 0.22977-0.27032 0.45908-0.40875 0.68497-0.002319 0.003723-0.001434 0.009094-0.003784 0.012848-0.27646 0.45084-0.56744 0.89523-0.86597 1.3303-0.002472 0.003632-0.001312 0.009308-0.003754 0.012878-0.59994 0.87357-1.2498 1.7208-1.9335 2.5281-0.68646 0.81061-1.4084 1.5773-2.1723 2.3173-0.002899 0.002869-7.93e-4 0.010071-0.003723 0.012878-0.76117 0.737-1.5624 1.434-2.3933 2.0972-0.003052 0.00238-6.71e-4 0.010406-0.003723 0.012878-0.41415 0.33032-0.83685 0.64395-1.267 0.95532-0.003113 0.002228-6.41e-4 0.01062-0.003723 0.012878-0.43045 0.31128-0.88025 0.6076-1.3258 0.89941-0.003113 0.002014-6.71e-4 0.010864-0.003723 0.012878-1.792 1.1729-3.7064 2.1895-5.7079 3.0288-2.0046 0.84055-4.1005 1.5066-6.2588 1.9823-1.0792 0.23792-2.1767 0.42581-3.2837 0.5669-1.107 0.14105-2.2212 0.23444-3.3489 0.2749-0.5639 0.020264-1.1328 0.026306-1.7006 0.020691-2.2708-0.022461-4.5757-0.25217-6.8728-0.70697-0.57434-0.11377-1.1444-0.24173-1.7181-0.38361-0.57376-0.14191-1.1368-0.29422-1.6957-0.46082-2.2358-0.66644-4.3564-1.5308-6.335-2.5598-0.49472-0.2572-0.98416-0.52502-1.4615-0.8028-0.95468-0.55576-1.8691-1.1504-2.7513-1.7837-0.88229-0.63315-1.731-1.3023-2.5367-2.0065-0.4028-0.35223-0.78561-0.72009-1.1685-1.0889-0.3829-0.36874-0.76166-0.74933-1.1256-1.1334-0.36258-0.38434-0.71304-0.77179-1.0547-1.171-0.68329-0.79852-1.3244-1.6216-1.9209-2.4747-0.29639-0.42395-0.57803-0.86408-0.85223-1.3003-0.27771-0.44171-0.54465-0.87488-0.79907-1.3284-0.001648-0.00296 0.005432-0.009888 0.003754-0.012878-0.25278-0.45087-0.4989-0.90436-0.72815-1.3661-0.22937-0.46152-0.4519-0.93213-0.65723-1.4037-0.20532-0.47174-0.39532-0.94409-0.57611-1.425-0.36169-0.96152-0.6723-1.9402-0.93292-2.9337-0.26062-0.99341-0.47058-1.9907-0.62601-3.0095-6.1e-4 -0.004089 0.004364-0.00882 0.003723-0.012878-0.077026-0.50546-0.15158-1.015-0.202-1.5256-3.97e-4 -0.00415 0.00415-0.008667 0.003723-0.012848-0.050568-0.51462-0.083801-1.0244-0.10681-1.5434-0.022583-0.50763-0.027039-1.0118-0.022888-1.5226 3.05e-4 -0.03656 0.001434-0.073242 0.001892-0.1098 0.005524-0.46451 0.020813-0.94186 0.048889-1.4083 0.007111-0.11728 0.018616-0.23456 0.027161-0.3519 0.023926-0.32968 0.041351-0.65726 0.076782-0.9877 0.017731-0.1655 0.033569-0.33118 0.05423-0.49683 0.001617-0.013031 0.009583-0.025574 0.0112-0.038605 0.054749-0.43509 0.12308-0.86655 0.19812-1.3025 0.012939-0.075195 0.021973-0.15045 0.035522-0.22565 0.080231-0.44519 0.18118-0.89111 0.28302-1.3367 0.008057-0.035217 0.00769-0.071106 0.015869-0.10638 0.12253-0.5282 0.26056-1.0525 0.4137-1.5801 0.15317-0.52759 0.31763-1.0454 0.49765-1.5594 0.17716-0.50916 0.36902-1.0151 0.5741-1.5129 0.001709-0.004089 0.002045-0.008728 0.003723-0.012878 0.20428-0.49567 0.42166-0.98496 0.6506-1.4663 0.001923-0.004028 0.001831-0.00882 0.003723-0.012848 0.22916-0.48123 0.47412-0.95343 0.72708-1.4199 0.002106-0.003876 0.001617-0.009033 0.003754-0.012878 0.25311-0.46631 0.52744-0.9223 0.80353-1.3734 0.002289-0.003754 0.001434-0.009125 0.003723-0.012848 0.27628-0.45099 0.56769-0.89514 0.86606-1.3304 0.002411-0.00351 0.001282-0.009308 0.003723-0.012848 0.301-0.43869 0.60596-0.86511 0.92853-1.2873 0.24164-0.31634 0.49692-0.62457 0.75024-0.93146 0.028748-0.034851 0.060638-0.067261 0.089569-0.10196 0.12396-0.1489 0.24286-0.29987 0.36954-0.44647 0.19519-0.22574 0.39664-0.44544 0.59811-0.66568 0.13809-0.15106 0.27426-0.30045 0.41522-0.44891 0.31036-0.32657 0.63016-0.64938 0.95456-0.96368 0.002869-0.002808 8.54e-4 -0.010101 0.003723-0.012878 0.38187-0.37 0.7674-0.72485 1.1673-1.0765 0.40277-0.35419 0.80963-0.6984 1.2298-1.0335 0.41403-0.3305 0.83698-0.64386 1.267-0.95538 0.00296-0.002075 7.63e-4 -0.010681 0.003723-0.012848 0.4303-0.3114 0.88037-0.60745 1.3258-0.89941 0.002991-0.001953 8.24e-4 -0.010925 0.003754-0.012878 0.44858-0.29379 0.9075-0.57336 1.3706-0.84698 1.3893-0.82089 2.8337-1.5513 4.3373-2.1818 2.0046-0.84055 4.1005-1.5065 6.2589-1.9823 1.0792-0.23792 2.1766-0.42575 3.2837-0.56683 1.107-0.14105 2.2212-0.2345 3.3489-0.27496 0.56387-0.020203 1.1328-0.026276 1.7005-0.020691 2.2708 0.022461 4.5757 0.2522 6.8728 0.707 0.57428 0.11374 1.1444 0.24173 1.7182 0.38364z" fill="#c0c0c0"/>
  <path d="m322.69 153.26c-42.297-10.462-85.782 12.624-97.073 51.521s13.868 78.947 56.164 89.408c42.297 10.462 85.792-12.608 97.083-51.504 11.291-38.897-13.878-78.963-56.174-89.425zm-11.56 39.877c0.57373 0.14191 1.1368 0.29419 1.6957 0.46078 2.2357 0.66641 4.3564 1.5308 6.335 2.5598 0.49469 0.25717 0.98413 0.52499 1.4615 0.80276 0.95462 0.55576 1.8691 1.1504 2.7513 1.7837 1.3235 0.94971 2.5562 1.9896 3.7052 3.0953 0.76581 0.73755 1.4971 1.5057 2.1803 2.3045 1.025 1.1977 1.9597 2.4612 2.7872 3.7784 1.6544 2.6354 2.8943 5.4852 3.6757 8.4663 0.26059 0.99344 0.47058 1.9907 0.62601 3.0095 0.54562 3.5705 0.43012 7.28-0.42847 10.982-0.12174 0.5239-0.26175 1.0568-0.41367 1.5801-0.3063 1.0552-0.65979 2.0725-1.0718 3.0722-0.001709 0.00412-0.002045 0.008759-0.003754 0.012878-0.2045 0.49558-0.42142 0.98508-0.65057 1.4663-0.001953 0.004028-0.001862 0.00885-0.003754 0.012878-0.22934 0.48114-0.47391 0.95355-0.72708 1.4199-0.002106 0.003906-0.001617 0.008972-0.003723 0.012878-0.25336 0.46619-0.52725 0.92242-0.80353 1.3734-0.002289 0.003754-0.001465 0.009155-0.003754 0.012878-0.27649 0.45084-0.56744 0.89523-0.86603 1.3303-0.002472 0.003601-0.001251 0.009277-0.003723 0.012878-1.2024 1.7507-2.5813 3.3684-4.1058 4.8455-0.00293 0.002808-7.93e-4 0.01001-0.003723 0.012878-0.76123 0.737-1.5624 1.4339-2.3933 2.0972-0.003052 0.002441-6.71e-4 0.010437-0.003754 0.012848-0.41415 0.33035-0.83685 0.64401-1.2671 0.95538-0.003082 0.002228-6.1e-4 0.01059-0.003723 0.012848-0.43039 0.31128-0.88022 0.6076-1.3258 0.89944-0.003052 0.001984-6.1e-4 0.010834-0.003723 0.012848-0.8945 0.58551-1.8179 1.1279-2.7681 1.6321-0.47958 0.25467-0.96384 0.496-1.4563 0.72925-0.48941 0.23178-0.98221 0.45721-1.4834 0.66739-2.0047 0.84055-4.1006 1.5065-6.2589 1.9823-1.0792 0.23792-2.1766 0.42572-3.2837 0.56683-1.1069 0.14105-2.2212 0.23444-3.3489 0.27496-0.56384 0.020203-1.1328 0.026245-1.7006 0.02066-2.2708-0.022461-4.5756-0.25217-6.8728-0.70703-0.57428-0.11368-1.1444-0.24167-1.7181-0.38358s-1.1368-0.29422-1.6957-0.46082c-2.2357-0.66641-4.3564-1.5307-6.335-2.5598-0.49469-0.2572-0.98413-0.52502-1.4615-0.8028-0.95462-0.55582-1.8691-1.1504-2.7513-1.7838-1.3235-0.94968-2.5563-1.9895-3.7052-3.0954-0.76581-0.73752-1.4972-1.5056-2.1803-2.3044-1.3689-1.5996-2.5561-3.3102-3.5685-5.1163-0.25275-0.45087-0.49887-0.90436-0.72815-1.3661-0.91745-1.8462-1.645-3.7756-2.1663-5.7624-0.26059-0.99341-0.47058-1.9906-0.62601-3.0095-6.1e-4 -0.004059 0.004364-0.008789 0.003754-0.012848-0.077026-0.50546-0.15161-1.015-0.202-1.5255-3.97e-4 -0.00415 0.00412-0.008667 0.003723-0.012878-0.050568-0.51468-0.083832-1.0244-0.10684-1.5434-0.11551-2.5985 0.11508-5.2417 0.72983-7.8869 0.1225-0.5282 0.26053-1.0525 0.4137-1.5801 0.30756-1.0596 0.66138-2.0815 1.0755-3.0851 0.20425-0.49573 0.42163-0.98502 0.65057-1.4664 0.001923-0.004028 0.001831-0.00885 0.003723-0.012878 0.22916-0.48123 0.47415-0.9534 0.72708-1.4199 0.002106-0.003906 0.001648-0.008972 0.003723-0.012848 0.25317-0.46634 0.52747-0.92233 0.80356-1.3734 0.002258-0.003723 0.001434-0.009125 0.003723-0.012878 0.27631-0.45093 0.56769-0.89508 0.86606-1.3303 0.002411-0.00354 0.001282-0.009277 0.003723-0.012878 0.301-0.43869 0.60599-0.86505 0.92853-1.2873 0.97012-1.2699 2.032-2.4586 3.181-3.571 0.3819-0.37003 0.7674-0.72488 1.1673-1.0765 0.40277-0.35419 0.8096-0.6984 1.2297-1.0335 0.41403-0.33044 0.83704-0.64386 1.2671-0.95532 0.002991-0.002167 7.63e-4 -0.010712 0.003754-0.012878 0.43024-0.3114 0.88037-0.60748 1.3258-0.89941 0.00296-0.001953 7.63e-4 -0.010925 0.003754-0.012878 0.44858-0.29382 0.90747-0.5734 1.3705-0.84698 0.46314-0.27362 0.9209-0.5322 1.3976-0.78516 0.47961-0.25464 0.96384-0.49597 1.4563-0.72925 0.48938-0.23175 0.98221-0.45721 1.4834-0.66736 2.0047-0.84058 4.1005-1.5066 6.2588-1.9823 1.0792-0.23795 2.1767-0.42584 3.2837-0.5669 1.107-0.14105 2.2212-0.23447 3.3489-0.27493 0.56387-0.020233 1.1328-0.026276 1.7005-0.02066 2.2708 0.022461 4.5756 0.25214 6.8729 0.70697 0.57428 0.11374 1.1444 0.2417 1.7181 0.38361z" fill="#a9a9a9" opacity=".794"/>
  <path d="m320.02 162.44c-36.789-9.0994-74.613 10.982-84.434 44.814-9.8206 33.832 12.062 68.668 48.851 77.767 36.789 9.0994 74.624-10.966 84.444-44.798 9.8206-33.832-12.073-68.684-48.862-77.783zm-8.8975 30.704c18.359 4.541 29.277 21.94 24.376 38.823-4.9009 16.884-23.776 26.899-42.135 22.358s-29.277-21.94-24.376-38.823c4.9008-16.884 23.776-26.899 42.135-22.358z" fill="url(#d)" opacity=".794"/>
  <path d="m313.11 186.26c-22.521-5.5703-45.67 6.6903-51.672 27.369-6.0025 20.679 7.4002 41.994 29.921 47.564 22.521 5.5703 45.67-6.6903 51.672-27.369l0.0038-0.0131c6.0025-20.679-7.404-41.981-29.925-47.551zm-2.4627 8.4838c17.453 4.3168 27.848 20.808 23.203 36.81s-22.576 25.473-40.029 21.156c-17.453-4.3168-27.848-20.808-23.203-36.81s22.576-25.473 40.029-21.156z" fill="#696969" filter="url(#c)" opacity=".588"/>
  <path d="m312.87 187.08c-21.965-5.4327-44.557 6.5741-50.428 26.802-5.8718 20.228 7.1858 41.066 29.151 46.499 21.965 5.4328 44.557-6.5741 50.428-26.802l0.0037-0.0128c5.8718-20.228-7.1896-41.054-29.154-46.486zm-2.409 8.299c17.022 4.2102 27.149 20.332 22.605 35.986s-22.043 24.928-39.065 20.718c-17.022-4.2102-27.149-20.332-22.605-35.986 4.5439-15.654 22.043-24.928 39.065-20.718z" fill="#c0c0c0"/>
 </g>
</svg>
